<?xml version="1.0" encoding="utf-8"?>
<!-- Generator: Adobe Illustrator 25.2.1, SVG Export Plug-In . SVG Version: 6.00 Build 0)  -->
<svg version="1.1" id="Layer_1" xmlns="http://www.w3.org/2000/svg" xmlns:xlink="http://www.w3.org/1999/xlink" x="0px" y="0px"
	 viewBox="0 0 500 500" style="enable-background:new 0 0 500 500;" xml:space="preserve">
<style type="text/css">
	.st0{fill:#EB2227;}
	.st1{fill:#FFFFFF;}
	.st2{fill:#ED2A2C;}
	.st3{fill:#CDDDF2;}
	.st4{fill:#CC282D;}
	.st5{fill:#CD2D32;}
	.st6{fill:#F7F8F8;}
	.st7{fill:#545960;}
	.st8{fill:#6D7077;}
	.st9{fill:#DCDDE1;}
	.st10{fill:#E4E4E8;}
	.st11{fill:#D15627;}
	.st12{fill:#F4D040;}
	.st13{fill-rule:evenodd;clip-rule:evenodd;fill:#EB2127;}
	.st14{clip-path:url(#SVGID_2_);fill:#DE1F26;}
	.st15{fill:#EC252B;}
</style>
<g>
	<path class="st0" d="M206.74,277.75c0,0-55.99,35.63-61.08,48.35c-8.13,20.33-17.81,81.44-17.81,81.44s48.35-66.17,83.98-66.17
		L206.74,277.75"/>
	<path class="st1" d="M127.84,407.55C127.84,407.55,127.84,407.55,127.84,407.55C127.84,407.55,127.84,407.55,127.84,407.55
		 M127.84,407.55C127.84,407.55,127.84,407.55,127.84,407.55C127.84,407.55,127.84,407.55,127.84,407.55 M141.16,391.01
		c-8.12,9.43-13.26,16.45-13.32,16.53C127.91,407.46,133.05,400.44,141.16,391.01C141.16,391.02,141.16,391.01,141.16,391.01"/>
	<path class="st2" d="M201.16,281.38c-14.3,9.39-51.4,34.49-55.5,44.73c-8.13,20.33-17.81,81.44-17.81,81.44s0,0,0,0c0,0,0,0,0,0
		c0,0,0,0,0,0c0,0,0,0,0,0c0,0,0,0,0,0c0.06-0.09,5.2-7.1,13.32-16.53c3.57-19.27,8.74-44.34,13.4-56
		c2.96-7.39,23.06-22.49,39.41-33.86l-2.14-13.55C195.44,285.15,198.65,283.02,201.16,281.38L201.16,281.38"/>
	<path class="st0" d="M293.26,277.75c0,0,55.99,35.63,61.08,48.35c8.13,20.33,17.81,81.44,17.81,81.44s-48.35-66.17-83.98-66.17
		L293.26,277.75"/>
	<path class="st1" d="M372.16,407.55C372.16,407.55,372.16,407.55,372.16,407.55C372.16,407.55,372.16,407.55,372.16,407.55
		 M358.84,391.01C358.84,391.01,358.84,391.02,358.84,391.01c8.14,9.46,13.29,16.49,13.32,16.53
		C372.13,407.5,366.98,400.47,358.84,391.01"/>
	<path class="st2" d="M298.84,281.38l-2.12,13.42l0,0L298.84,281.38c2.51,1.65,5.71,3.77,9.32,6.22l-2.14,13.55
		c16.35,11.37,36.45,26.47,39.41,33.86c4.66,11.66,9.84,36.73,13.4,56c8.15,9.46,13.29,16.49,13.32,16.53c0,0,0,0,0,0c0,0,0,0,0,0
		c0,0,0,0,0,0s-9.68-61.11-17.81-81.44C350.24,315.86,313.14,290.76,298.84,281.38"/>
	<path class="st3" d="M289.36,341.4l0,0.02c3.25,0.13,6.6,0.78,10.01,1.88l0-0.01C295.97,342.2,292.62,341.53,289.36,341.4"/>
	<path class="st4" d="M296.73,294.79l-0.88,5.55l0.75-4.77l-2.01,12.72l-4.02,25.45l-1.21,7.66c3.25,0.13,6.6,0.79,10.01,1.89
		l1.26-7.96l4.02-25.45l1.26-7.95h0l0.12-0.78C302.71,298.85,299.56,296.7,296.73,294.79"/>
	<path class="st5" d="M298.84,281.38l-2.12,13.42c2.83,1.9,5.99,4.05,9.3,6.36l2.14-13.55
		C304.56,285.15,301.35,283.02,298.84,281.38"/>
	<path class="st3" d="M210.64,341.4c-3.25,0.13-6.6,0.79-10.01,1.89l0,0.01c3.41-1.09,6.76-1.75,10.01-1.88L210.64,341.4"/>
	<path class="st4" d="M203.27,294.79c-2.83,1.9-5.99,4.05-9.3,6.36l0.12,0.78l1.26,7.95l4.02,25.45l1.26,7.96
		c3.4-1.09,6.76-1.76,10.01-1.89l-1.21-7.66l-4.02-25.45l-2.01-12.72l0.75,4.77L203.27,294.79"/>
	<path class="st5" d="M201.16,281.38c-2.51,1.65-5.71,3.77-9.32,6.22l2.14,13.55c3.31-2.3,6.47-4.46,9.3-6.36L201.16,281.38"/>
	<path class="st6" d="M294.59,308.29h-89.19l-2.01-12.72h93.21L294.59,308.29 M198.98,267.58l2.01,12.72h98.03l2.01-12.72
		c0,0,6.7-74.67-18.86-160.33h-64.34C192.27,192.91,198.98,267.58,198.98,267.58 M290.57,333.74l-2.41,15.27H250h-38.16l-2.41-15.27
		H290.57"/>
	<path class="st1" d="M233.14,295.57l2.01,12.72h-29.75l-2.01-12.72H233.14 M217.83,107.25c-25.56,85.66-18.86,160.33-18.86,160.33
		l2.01,12.72h29.62l-2.01-12.72c0,0-6.7-74.67,18.86-160.33H217.83 M239.04,333.74l2.41,15.27h-29.62l-2.41-15.27H239.04"/>
	<path class="st0" d="M250,39.01c-3.05,0-6.16,1.92-7.19,4.61h-0.01l-0.03,0.06c-10.6,21.23-18.72,42.72-24.94,63.57h64.34
		c-6.22-20.85-14.34-42.34-24.94-63.57l-0.03-0.06h-0.01C256.16,40.93,253.05,39.02,250,39.01"/>
	<path class="st1" d="M218.21,106c-0.12,0.41-0.25,0.82-0.37,1.23l-0.01,0.02C217.96,106.83,218.08,106.41,218.21,106 M225.66,83.56
		l-0.01,0.01c-0.29,0.78-0.57,1.57-0.85,2.35C225.09,85.14,225.38,84.35,225.66,83.56 M250,39.01c-3.05,0-6.16,1.92-7.19,4.61h-0.01
		l-0.03,0.06c-0.02,0.04-0.04,0.08-0.06,0.12c0.02-0.04,0.04-0.08,0.06-0.12l0.03-0.06h0.01C243.84,40.93,246.95,39.02,250,39.01
		c3.05,0,6.16,1.92,7.19,4.61h0.01l0.03,0.06l0,0l0,0l-0.03-0.06h-0.01C256.16,40.93,253.05,39.02,250,39.01"/>
	<path class="st2" d="M250,39.01c-3.05,0-6.16,1.92-7.19,4.61h-0.01l-0.03,0.06c-0.02,0.04-0.04,0.08-0.06,0.12
		c-1.17,2.34-2.29,4.68-3.4,7.02c-0.25,0.52-0.49,1.04-0.73,1.56c-1.1,2.36-2.18,4.72-3.22,7.08c-0.1,0.23-0.2,0.46-0.3,0.69
		c-1,2.27-1.97,4.55-2.92,6.82c-0.15,0.35-0.3,0.71-0.44,1.06c-1.01,2.45-2,4.9-2.95,7.35c-0.09,0.22-0.17,0.45-0.26,0.67
		c-0.97,2.51-1.92,5.01-2.83,7.51l0,0c-0.29,0.79-0.57,1.58-0.85,2.36c-0.65,1.81-1.28,3.62-1.9,5.43
		c-0.04,0.12-0.08,0.24-0.12,0.36c-1.63,4.79-3.16,9.56-4.59,14.29c-0.13,0.42-0.25,0.83-0.37,1.25h29.62
		c4.64-15.56,10.35-31.49,17.36-47.4c-2.38-5.4-4.9-10.79-7.58-16.17l0,0l-0.03-0.06h-0.01C256.16,40.93,253.05,39.02,250,39.01"/>
	<path class="st0" d="M204.15,300.34l-3.17-20.04h98.03l-3.16,20.04l0.75-4.77H203.4L204.15,300.34 M205.41,308.29l4.02,25.45h81.15
		l4.02-25.45H205.41"/>
	<polyline class="st2" points="230.6,280.3 230.6,280.3 200.99,280.3 204.15,300.34 203.4,295.57 233.02,295.57 230.6,280.3 	"/>
	<polyline class="st2" points="235.02,308.29 205.41,308.29 209.43,333.74 239.04,333.74 235.02,308.29 	"/>
	<path class="st7" d="M275.45,158.14c0,14.06-11.39,25.45-25.45,25.45c-14.06,0-25.45-11.39-25.45-25.45
		c0-14.06,11.39-25.45,25.45-25.45C264.06,132.69,275.45,144.09,275.45,158.14"/>
	<path class="st1" d="M224.55,158.31C224.55,158.31,224.55,158.32,224.55,158.31C224.55,158.32,224.55,158.31,224.55,158.31
		 M224.55,158.27C224.55,158.27,224.55,158.27,224.55,158.27C224.55,158.27,224.55,158.27,224.55,158.27 M224.55,158.23
		c0,0,0,0.01,0,0.01C224.55,158.23,224.55,158.23,224.55,158.23 M224.55,158.19C224.55,158.19,224.55,158.19,224.55,158.19
		C224.55,158.19,224.55,158.19,224.55,158.19 M224.55,158.11c0,0.01,0,0.03,0,0.04l0,0C224.55,158.13,224.55,158.12,224.55,158.11
		 M224.55,158.07c0,0.01,0,0.02,0,0.03C224.55,158.09,224.55,158.08,224.55,158.07 M224.55,158.02c0,0.01,0,0.02,0,0.03
		C224.55,158.05,224.55,158.04,224.55,158.02 M224.55,157.98c0,0.01,0,0.02,0,0.04C224.55,158.01,224.55,158,224.55,157.98
		 M224.55,157.95c0,0.01,0,0.02,0,0.03C224.55,157.96,224.55,157.95,224.55,157.95 M224.55,157.9c0,0.01,0,0.02,0,0.03
		C224.55,157.92,224.55,157.91,224.55,157.9 M224.55,157.86c0,0.01,0,0.02,0,0.04C224.55,157.88,224.55,157.87,224.55,157.86
		 M224.55,157.82c0,0.01,0,0.02,0,0.03C224.55,157.84,224.55,157.83,224.55,157.82 M224.55,157.78c0,0.01,0,0.02,0,0.03
		C224.55,157.8,224.55,157.79,224.55,157.78 M224.55,157.74c0,0.01,0,0.02,0,0.04C224.55,157.76,224.55,157.75,224.55,157.74
		 M224.55,157.7c0,0.01,0,0.02,0,0.02C224.55,157.72,224.55,157.71,224.55,157.7 M224.56,157.66c0,0.01,0,0.02,0,0.03
		C224.55,157.68,224.56,157.67,224.56,157.66 M224.56,157.61c0,0.01,0,0.02,0,0.03C224.56,157.64,224.56,157.62,224.56,157.61
		 M224.56,157.58c0,0.01,0,0.02,0,0.02C224.56,157.59,224.56,157.58,224.56,157.58 M224.56,157.54c0,0.01,0,0.02,0,0.02
		C224.56,157.55,224.56,157.55,224.56,157.54 M224.56,157.49c0,0.01,0,0.02,0,0.03C224.56,157.51,224.56,157.5,224.56,157.49
		 M224.56,157.46c0,0.01,0,0.01,0,0.02C224.56,157.47,224.56,157.46,224.56,157.46 M224.56,157.42c0,0.01,0,0.01,0,0.02
		C224.56,157.43,224.56,157.43,224.56,157.42 M224.56,157.37C224.56,157.37,224.56,157.38,224.56,157.37
		C224.56,157.38,224.56,157.37,224.56,157.37 M224.56,157.33c0,0,0,0.01,0,0.01C224.56,157.34,224.56,157.34,224.56,157.33
		 M224.56,157.3c0,0,0,0.01,0,0.01C224.56,157.31,224.56,157.3,224.56,157.3 M224.57,157.21
		C224.57,157.22,224.57,157.22,224.57,157.21C224.57,157.22,224.57,157.22,224.57,157.21 M224.57,157.18
		C224.57,157.18,224.57,157.19,224.57,157.18C224.57,157.19,224.57,157.18,224.57,157.18 M224.57,157.09
		C224.57,157.09,224.57,157.09,224.57,157.09C224.57,157.09,224.57,157.09,224.57,157.09 M224.57,157.06
		C224.57,157.06,224.57,157.06,224.57,157.06C224.57,157.06,224.57,157.06,224.57,157.06"/>
	<path class="st8" d="M240.24,134.64c-8.9,3.7-15.25,12.29-15.67,22.42c0,0,0,0,0,0c0,0.01,0,0.02,0,0.03c0,0,0,0,0,0
		c0,0.03,0,0.06,0,0.08c0,0,0,0.01,0,0.01c0,0.01,0,0.02,0,0.02c0,0,0,0.01,0,0.01c0,0.03,0,0.05,0,0.08c0,0,0,0.01,0,0.01
		c0,0.01,0,0.01,0,0.02c0,0.01,0,0.01,0,0.01c0,0.01,0,0.01,0,0.02c0,0,0,0.01,0,0.01c0,0.01,0,0.03,0,0.04c0,0.01,0,0.01,0,0.02
		c0,0.01,0,0.01,0,0.02c0,0.01,0,0.01,0,0.02c0,0,0,0.01,0,0.01c0,0.01,0,0.02,0,0.03c0,0,0,0.01,0,0.01c0,0.01,0,0.02,0,0.02
		c0,0,0,0.01,0,0.01c0,0.01,0,0.02,0,0.02c0,0,0,0.01,0,0.01c0,0.01,0,0.02,0,0.03c0,0,0,0.01,0,0.01c0,0.01,0,0.02,0,0.03
		c0,0.01,0,0.01,0,0.01c0,0.01,0,0.02,0,0.02c0,0,0,0.01,0,0.01c0,0.01,0,0.02,0,0.04c0,0,0,0.01,0,0.01c0,0.01,0,0.02,0,0.03
		c0,0,0,0.01,0,0.01c0,0.01,0,0.02,0,0.03c0,0,0,0.01,0,0.01c0,0.01,0,0.02,0,0.04c0,0,0,0.01,0,0.01c0,0.01,0,0.02,0,0.03
		c0,0,0,0.01,0,0.01c0,0.01,0,0.02,0,0.03c0,0,0,0.01,0,0.01c0,0.01,0,0.02,0,0.04c0,0,0,0,0,0.01c0,0.01,0,0.02,0,0.03
		c0,0,0,0.01,0,0.01c0,0.01,0,0.02,0,0.03c0,0,0,0.01,0,0.01c0,0.01,0,0.02,0,0.04c0,0.01,0,0.03,0,0.04c0,0,0,0,0,0.01
		c0,0.01,0,0.02,0,0.03c0,0,0,0.01,0,0.01c0,0.01,0,0.02,0,0.03c0,0,0,0,0,0.01c0,0.01,0,0.02,0,0.04c0,0,0,0,0,0
		c0.05,7.21,3.11,13.69,7.97,18.3c0.47-3.42,0.99-6.9,1.56-10.45c-1.22-2.41-1.9-5.14-1.9-8.02l0,0l0,0c0-5.21,2.23-9.89,5.79-13.15
		C238.69,141.58,239.44,138.12,240.24,134.64"/>
	<path class="st9" d="M267.81,158.14c0,9.84-7.98,17.81-17.81,17.81c-9.84,0-17.81-7.98-17.81-17.81c0-9.84,7.98-17.81,17.81-17.81
		C259.84,140.33,267.81,148.3,267.81,158.14"/>
	<path class="st8" d="M250.04,175.96C250.03,175.96,250.03,175.96,250.04,175.96C250.03,175.96,250.03,175.96,250.04,175.96
		 M250.06,175.96C250.06,175.96,250.06,175.96,250.06,175.96C250.06,175.96,250.06,175.96,250.06,175.96 M250.06,140.33
		C250.06,140.33,250.06,140.33,250.06,140.33C250.06,140.33,250.06,140.33,250.06,140.33 M250.03,140.33
		C250.03,140.33,250.03,140.33,250.03,140.33C250.03,140.33,250.03,140.33,250.03,140.33"/>
	<path class="st10" d="M250,140.33c-4.63,0-8.85,1.77-12.02,4.67c-3.56,3.26-5.79,7.94-5.79,13.15c0,9.84,7.98,17.81,17.81,17.81
		c0.01,0,0.02,0,0.03,0c0,0,0,0,0,0c0.01,0,0.02,0,0.03,0c0,0,0,0,0,0c2.71-0.01,5.27-0.64,7.57-1.74
		c-6.01-2.86-10.18-8.97-10.18-16.08c0-7.1,4.17-13.22,10.18-16.08c-2.3-1.09-4.86-1.73-7.57-1.74c0,0,0,0,0,0
		c-0.01,0-0.02,0-0.03,0c0,0,0,0,0,0C250.02,140.33,250.01,140.33,250,140.33L250,140.33"/>
	<polyline class="st0" points="283.08,364.28 216.93,364.28 216.93,349.01 283.08,349.01 283.08,364.28 	"/>
	<polyline class="st6" points="272.9,374.46 227.11,374.46 227.11,364.28 272.9,364.28 272.9,374.46 	"/>
	<polyline class="st1" points="244.91,374.46 227.11,374.46 227.11,364.28 244.91,364.28 244.91,374.46 	"/>
	<polyline class="st7" points="272.9,369.37 227.11,369.37 227.11,364.28 272.9,364.28 272.9,369.37 	"/>
	<polyline class="st2" points="216.93,349.01 216.93,349.01 216.93,364.28 237.28,364.28 237.28,354.1 216.93,354.1 216.93,349.01 	
		"/>
	<polyline class="st3" points="241.46,349.01 216.93,349.01 237.28,349.01 241.46,349.01 	"/>
	<polyline class="st4" points="283.08,349.01 241.46,349.01 237.28,349.01 237.28,354.1 283.08,354.1 283.08,349.01 	"/>
	<polyline class="st5" points="237.28,349.01 216.93,349.01 216.93,354.1 237.28,354.1 237.28,349.01 	"/>
	<polygon class="st11" points="250,374.46 227.11,374.46 250,460.99 272.89,374.46 	"/>
	<polygon class="st12" points="250,374.46 232.2,374.46 250,427.91 267.8,374.46 	"/>
	<path class="st13" d="M256.37,209.87c-3.47,2.56-6.13,6.19-7.49,10.4c-1.31-0.97-2.93-1.54-4.68-1.54c-4.39,0-7.95,3.6-7.95,8.04
		c0,4.44,3.56,8.04,7.95,8.04c1.75,0,3.37-0.57,4.68-1.54c1.36,4.22,4.02,7.84,7.49,10.4c-3.41,2.52-7.62,4-12.17,4
		c-11.42,0-20.68-9.36-20.68-20.91c0-11.55,9.26-20.91,20.68-20.91C248.75,205.87,252.96,207.36,256.37,209.87 M268.54,234.82
		c-4.39,0-7.95-3.6-7.95-8.04c0-4.44,3.56-8.04,7.95-8.04c4.39,0,7.95,3.6,7.95,8.04C276.49,231.22,272.93,234.82,268.54,234.82"/>
	<g>
		<defs>
			<path id="SVGID_1_" d="M256.37,209.87c-3.47,2.56-6.13,6.19-7.49,10.4c-1.31-0.97-2.93-1.54-4.68-1.54
				c-4.39,0-7.95,3.6-7.95,8.04c0,4.44,3.56,8.04,7.95,8.04c1.75,0,3.37-0.57,4.68-1.54c1.36,4.22,4.02,7.84,7.49,10.4
				c-3.41,2.52-7.62,4-12.17,4c-11.42,0-20.68-9.36-20.68-20.91c0-11.55,9.26-20.91,20.68-20.91
				C248.75,205.87,252.96,207.36,256.37,209.87 M268.54,234.82c-4.39,0-7.95-3.6-7.95-8.04c0-4.44,3.56-8.04,7.95-8.04
				c4.39,0,7.95,3.6,7.95,8.04C276.49,231.22,272.93,234.82,268.54,234.82"/>
		</defs>
		<clipPath id="SVGID_2_">
			<use xlink:href="#SVGID_1_"  style="overflow:visible;"/>
		</clipPath>
		<rect x="330.43" y="22.42" class="st14" width="156.8" height="125.85"/>
	</g>
	<path class="st1" d="M223.52,226.96C223.52,226.96,223.52,226.96,223.52,226.96C223.52,226.96,223.52,226.96,223.52,226.96
		 M223.52,226.93C223.52,226.93,223.52,226.93,223.52,226.93C223.52,226.93,223.52,226.93,223.52,226.93 M223.52,226.89
		c0,0,0,0.01,0,0.01C223.52,226.9,223.52,226.9,223.52,226.89 M223.52,226.86c0,0.01,0,0.01,0,0.02
		C223.52,226.87,223.52,226.86,223.52,226.86 M223.52,226.82c0,0.01,0,0.01,0,0.02C223.52,226.84,223.52,226.83,223.52,226.82
		 M223.52,226.78c0,0.01,0,0.02,0,0.03C223.52,226.8,223.52,226.79,223.52,226.78 M223.52,226.65c0,0.04,0,0.08,0,0.13l0,0
		C223.52,226.74,223.52,226.7,223.52,226.65 M223.52,226.59c0,0.02,0,0.04,0,0.05C223.52,226.63,223.52,226.61,223.52,226.59
		 M223.52,226.57C223.52,226.57,223.52,226.58,223.52,226.57C223.52,226.58,223.52,226.57,223.52,226.57 M223.52,226.47
		C223.52,226.48,223.52,226.48,223.52,226.47C223.52,226.48,223.52,226.48,223.52,226.47"/>
	<path class="st15" d="M229.6,211.98c-3.69,3.72-5.99,8.83-6.07,14.5c0,0,0,0,0,0c0,0.03,0,0.06,0,0.09c0,0,0,0,0,0.01
		c0,0,0,0.01,0,0.01c0,0.02,0,0.04,0,0.05c0,0,0,0.01,0,0.01c0,0.04,0,0.08,0,0.13l0,0c0,0.01,0,0.02,0,0.03c0,0,0,0.01,0,0.01
		c0,0.01,0,0.01,0,0.02c0,0.01,0,0.01,0,0.01c0,0.01,0,0.01,0,0.02c0,0.01,0,0.01,0,0.02c0,0,0,0.01,0,0.01c0,0.01,0,0.01,0,0.02
		c0,0,0,0.01,0,0.01c0,0.01,0,0.02,0,0.02c0,0,0,0,0,0c0.04,5.13,1.93,9.81,5,13.42C228.58,232.35,228.87,222.77,229.6,211.98"/>
</g>
</svg>
